solid 
 facet normal -1.000000e+00  0.000000e+00  0.000000e+00
   outer loop
     vertex -1.144927e+00  5.494070e-01  0.000000e+00
     vertex -1.144927e+00  4.734070e-01  2.000000e-02
     vertex -1.144927e+00  5.494070e-01  2.000000e-02
   endloop
 endfacet
 facet normal -1.000000e+00  0.000000e+00  0.000000e+00
   outer loop
     vertex -1.144927e+00  5.494070e-01  0.000000e+00
     vertex -1.144927e+00  4.734070e-01  0.000000e+00
     vertex -1.144927e+00  4.734070e-01  2.000000e-02
   endloop
 endfacet
endsolid
