solid 
 facet normal -1.000000e+00  0.000000e+00  0.000000e+00
   outer loop
     vertex -7.434644e-01  7.614070e-01  0.000000e+00
     vertex -7.434644e-01  5.244503e-01  2.000000e-02
     vertex -7.434644e-01  7.614070e-01  2.000000e-02
   endloop
 endfacet
 facet normal -1.000000e+00  0.000000e+00  0.000000e+00
   outer loop
     vertex -7.434644e-01  7.614070e-01  0.000000e+00
     vertex -7.434644e-01  5.244503e-01  0.000000e+00
     vertex -7.434644e-01  5.244503e-01  2.000000e-02
   endloop
 endfacet
 facet normal -1.000000e+00  0.000000e+00  0.000000e+00
   outer loop
     vertex -7.434644e-01  4.802762e-01  0.000000e+00
     vertex -7.434644e-01  2.614070e-01  2.000000e-02
     vertex -7.434644e-01  4.802762e-01  2.000000e-02
   endloop
 endfacet
 facet normal -1.000000e+00  0.000000e+00  0.000000e+00
   outer loop
     vertex -7.434644e-01  4.802762e-01  0.000000e+00
     vertex -7.434644e-01  2.614070e-01  0.000000e+00
     vertex -7.434644e-01  2.614070e-01  2.000000e-02
   endloop
 endfacet
endsolid
