solid 
 facet normal  1.000000e+00  0.000000e+00  0.000000e+00
   outer loop
     vertex  2.565356e-01  7.614070e-01  2.000000e-02
     vertex  2.565356e-01  2.614070e-01  2.000000e-02
     vertex  2.565356e-01  2.614070e-01  0.000000e+00
   endloop
 endfacet
 facet normal  1.000000e+00  0.000000e+00  0.000000e+00
   outer loop
     vertex  2.565356e-01  7.614070e-01  2.000000e-02
     vertex  2.565356e-01  2.614070e-01  0.000000e+00
     vertex  2.565356e-01  7.614070e-01  0.000000e+00
   endloop
 endfacet
endsolid
